<svg width="20" height="20" viewBox="0 0 20 20"  xmlns="http://www.w3.org/2000/svg">
<path d="M10.0001 6.87567C8.2798 6.87567 6.87589 8.27958 6.87589 9.99989C6.87589 11.7202 8.2798 13.1241 10.0001 13.1241C11.7204 13.1241 13.1243 11.7202 13.1243 9.99989C13.1243 8.27958 11.7204 6.87567 10.0001 6.87567ZM19.3704 9.99989C19.3704 8.70614 19.3821 7.42411 19.3095 6.1327C19.2368 4.6327 18.8946 3.30145 17.7978 2.20458C16.6986 1.10536 15.3696 0.765516 13.8696 0.69286C12.5759 0.620204 11.2939 0.631923 10.0025 0.631923C8.7087 0.631923 7.42667 0.620204 6.13527 0.69286C4.63527 0.765516 3.30402 1.1077 2.20714 2.20458C1.10792 3.3038 0.76808 4.6327 0.695424 6.1327C0.622767 7.42645 0.634486 8.70848 0.634486 9.99989C0.634486 11.2913 0.622767 12.5757 0.695424 13.8671C0.76808 15.3671 1.11027 16.6983 2.20714 17.7952C3.30636 18.8944 4.63527 19.2343 6.13527 19.3069C7.42902 19.3796 8.71105 19.3679 10.0025 19.3679C11.2962 19.3679 12.5782 19.3796 13.8696 19.3069C15.3696 19.2343 16.7009 18.8921 17.7978 17.7952C18.897 16.696 19.2368 15.3671 19.3095 13.8671C19.3845 12.5757 19.3704 11.2936 19.3704 9.99989ZM10.0001 14.8069C7.33996 14.8069 5.19308 12.66 5.19308 9.99989C5.19308 7.33973 7.33996 5.19286 10.0001 5.19286C12.6603 5.19286 14.8071 7.33973 14.8071 9.99989C14.8071 12.66 12.6603 14.8069 10.0001 14.8069ZM15.004 6.11864C14.3829 6.11864 13.8814 5.61708 13.8814 4.99598C13.8814 4.37489 14.3829 3.87333 15.004 3.87333C15.6251 3.87333 16.1267 4.37489 16.1267 4.99598C16.1269 5.14347 16.0979 5.28953 16.0416 5.42582C15.9852 5.56212 15.9026 5.68595 15.7983 5.79023C15.694 5.89452 15.5702 5.97721 15.4339 6.03356C15.2976 6.08991 15.1515 6.11882 15.004 6.11864Z" />
</svg>
