<svg width="22" height="22" viewBox="0 0 22 22"  xmlns="http://www.w3.org/2000/svg">
<path d="M11 0.5C5.20156 0.5 0.5 5.20156 0.5 11C0.5 15.2984 3.0875 18.9922 6.78594 20.6187C6.75781 19.8875 6.78125 19.0062 6.96875 18.2094C7.17031 17.3562 8.31875 12.4859 8.31875 12.4859C8.31875 12.4859 7.98125 11.8156 7.98125 10.8266C7.98125 9.27031 8.88125 8.10781 10.0063 8.10781C10.9625 8.10781 11.4219 8.825 11.4219 9.68281C11.4219 10.6437 10.8078 12.0781 10.4937 13.4094C10.2312 14.525 11.0516 15.4297 12.1531 15.4297C14.1406 15.4297 15.4813 12.875 15.4813 9.84687C15.4813 7.54531 13.9297 5.825 11.1125 5.825C7.92969 5.825 5.94219 8.20156 5.94219 10.8547C5.94219 11.7687 6.21406 12.4156 6.63594 12.9125C6.82812 13.1422 6.85625 13.2359 6.78594 13.4984C6.73438 13.6906 6.62187 14.1547 6.57031 14.3422C6.5 14.6094 6.28438 14.7031 6.04531 14.6047C4.57812 14.0047 3.89375 12.4016 3.89375 10.5922C3.89375 7.61094 6.41094 4.03437 11.3984 4.03437C15.4062 4.03437 18.0453 6.93594 18.0453 10.0484C18.0453 14.1687 15.7531 17.2437 12.3781 17.2437C11.2437 17.2437 10.1797 16.6297 9.81406 15.9359C9.81406 15.9359 9.20469 18.3547 9.07344 18.8234C8.85312 19.6344 8.41719 20.4406 8.01875 21.0734C8.96094 21.35 9.95937 21.5047 10.9953 21.5047C16.7937 21.5047 21.4953 16.8031 21.4953 11.0047C21.5 5.20156 16.7984 0.5 11 0.5Z" />
</svg>
